<svg width="100" height="100" viewBox="0 0 100 100" fill="none" xmlns="http://www.w3.org/2000/svg">
<g clip-path="url(#clip0_215_5)">
<path d="M11.3302 42L25.0582 8.4H30.8662L44.5462 42H37.2502L34.9462 35.616H20.9302L18.6262 42H11.3302ZM26.7382 20.64L23.1382 29.808H32.7382L29.1382 20.64C28.6582 19.36 28.2582 18.08 27.9382 16.8C27.6182 18.176 27.2182 19.456 26.7382 20.64ZM49.1872 42V14.448H39.5872V8.4H65.5072V14.448H55.9072V42H49.1872ZM73.9357 42.624C71.3757 42.624 69.0877 42.032 67.0717 40.848C65.0557 39.664 63.4717 38.096 62.3197 36.144C61.1997 34.16 60.6397 31.968 60.6397 29.568C60.6397 27.168 61.1997 24.976 62.3197 22.992C63.4717 21.008 65.0557 19.424 67.0717 18.24C69.0877 17.056 71.3757 16.464 73.9357 16.464C76.5277 16.464 78.8157 17.056 80.7997 18.24C82.8157 19.424 84.3837 21.008 85.5037 22.992C86.6557 24.976 87.2317 27.168 87.2317 29.568C87.2317 31.968 86.6557 34.16 85.5037 36.144C84.3837 38.096 82.8157 39.664 80.7997 40.848C78.8157 42.032 76.5277 42.624 73.9357 42.624ZM73.9357 36.72C75.3117 36.72 76.5117 36.4 77.5357 35.76C78.5597 35.088 79.3437 34.208 79.8877 33.12C80.4637 32.032 80.7517 30.848 80.7517 29.568C80.7517 28.256 80.4637 27.056 79.8877 25.968C79.3437 24.88 78.5597 24.016 77.5357 23.376C76.5117 22.704 75.3117 22.368 73.9357 22.368C72.5597 22.368 71.3597 22.704 70.3357 23.376C69.3117 24.016 68.5117 24.88 67.9357 25.968C67.3917 27.056 67.1197 28.256 67.1197 29.568C67.1197 30.848 67.3917 32.032 67.9357 33.12C68.5117 34.208 69.3117 35.088 70.3357 35.76C71.3597 36.4 72.5597 36.72 73.9357 36.72ZM12.1344 92V58.4H18.8544V85.952H31.3824V92H12.1344ZM44.4054 92.624C42.1334 92.624 40.0534 92.048 38.1654 90.896C36.3094 89.712 34.8214 88.144 33.7014 86.192C32.6134 84.208 32.0694 82.016 32.0694 79.616C32.0694 77.824 32.3894 76.144 33.0294 74.576C33.6694 72.976 34.5494 71.584 35.6694 70.4C36.7894 69.184 38.0854 68.24 39.5574 67.568C41.0614 66.864 42.6774 66.512 44.4054 66.512C46.5814 66.512 48.2774 66.928 49.4934 67.76C50.7094 68.56 51.6534 69.632 52.3254 70.976V67.04H58.7574V92H52.4694V87.92C51.7974 89.328 50.8374 90.464 49.5894 91.328C48.3734 92.192 46.6454 92.624 44.4054 92.624ZM45.4614 86.768C46.9014 86.768 48.1334 86.448 49.1574 85.808C50.2134 85.136 51.0294 84.256 51.6054 83.168C52.1814 82.08 52.4694 80.896 52.4694 79.616C52.4694 78.304 52.1814 77.104 51.6054 76.016C51.0294 74.928 50.2134 74.048 49.1574 73.376C48.1334 72.704 46.9014 72.368 45.4614 72.368C44.0854 72.368 42.8694 72.704 41.8134 73.376C40.7894 74.016 39.9894 74.88 39.4134 75.968C38.8374 77.056 38.5494 78.256 38.5494 79.568C38.5494 80.816 38.8374 82 39.4134 83.12C39.9894 84.208 40.7894 85.088 41.8134 85.76C42.8694 86.432 44.0854 86.768 45.4614 86.768ZM76.9595 92.624C74.7195 92.624 72.9755 92.192 71.7275 91.328C70.5115 90.464 69.5675 89.328 68.8955 87.92V92H62.6075V56.96H69.0875V70.88C69.7595 69.568 70.7035 68.512 71.9195 67.712C73.1355 66.912 74.8155 66.512 76.9595 66.512C78.6875 66.512 80.2875 66.864 81.7595 67.568C83.2635 68.24 84.5755 69.184 85.6955 70.4C86.8155 71.584 87.6955 72.976 88.3355 74.576C88.9755 76.144 89.2955 77.824 89.2955 79.616C89.2955 82.016 88.7355 84.208 87.6155 86.192C86.5275 88.144 85.0555 89.712 83.1995 90.896C81.3435 92.048 79.2635 92.624 76.9595 92.624ZM75.9035 86.768C77.2795 86.768 78.4795 86.432 79.5035 85.76C80.5595 85.088 81.3755 84.208 81.9515 83.12C82.5275 82 82.8155 80.816 82.8155 79.568C82.8155 78.256 82.5275 77.056 81.9515 75.968C81.3755 74.88 80.5595 74.016 79.5035 73.376C78.4795 72.704 77.2795 72.368 75.9035 72.368C74.4955 72.368 73.2635 72.704 72.2075 73.376C71.1515 74.048 70.3355 74.928 69.7595 76.016C69.1835 77.104 68.8955 78.304 68.8955 79.616C68.8955 80.896 69.1835 82.08 69.7595 83.168C70.3355 84.256 71.1515 85.136 72.2075 85.808C73.2635 86.448 74.4955 86.768 75.9035 86.768Z" fill="#53917E"/>
</g>
<defs>
<clipPath id="clip0_215_5">
<rect width="100" height="100" fill="white"/>
</clipPath>
</defs>
</svg>
